<mxfile host="app.diagrams.net" modified="2023-07-03T11:31:46.044Z" agent="Mozilla/5.0 (Windows NT 10.0; Win64; x64) AppleWebKit/537.36 (KHTML, like Gecko) Chrome/113.0.0.0 Safari/537.36 OPR/99.0.0.0" etag="ZHYBhWDbkQCPttSgOP37" version="21.5.2" type="github">
  <diagram name="Seite-1" id="TXbX36Tu4lhJ1qZrKnkc">
    <mxGraphModel dx="1393" dy="797" grid="1" gridSize="10" guides="1" tooltips="1" connect="1" arrows="1" fold="1" page="1" pageScale="1" pageWidth="827" pageHeight="1169" math="0" shadow="0">
      <root>
        <mxCell id="0" />
        <mxCell id="1" parent="0" />
        <mxCell id="Mo9uFNVVSariN-oG8x6S-2" value="Kategorien" style="html=1;whiteSpace=wrap;" parent="1" vertex="1">
          <mxGeometry x="640" y="330" width="110" height="50" as="geometry" />
        </mxCell>
        <mxCell id="Mo9uFNVVSariN-oG8x6S-3" value="Wunschliste" style="html=1;whiteSpace=wrap;" parent="1" vertex="1">
          <mxGeometry x="380" y="50" width="110" height="50" as="geometry" />
        </mxCell>
        <mxCell id="Mo9uFNVVSariN-oG8x6S-4" value="Warenkorb" style="html=1;whiteSpace=wrap;" parent="1" vertex="1">
          <mxGeometry x="469" y="210" width="110" height="50" as="geometry" />
        </mxCell>
        <mxCell id="Mo9uFNVVSariN-oG8x6S-5" value="Produkt" style="html=1;whiteSpace=wrap;" parent="1" vertex="1">
          <mxGeometry x="640" y="210" width="110" height="50" as="geometry" />
        </mxCell>
        <mxCell id="Mo9uFNVVSariN-oG8x6S-6" value="Benutzer/Benutzerkonto" style="html=1;whiteSpace=wrap;" parent="1" vertex="1">
          <mxGeometry x="180" y="380" width="149" height="50" as="geometry" />
        </mxCell>
        <mxCell id="Mo9uFNVVSariN-oG8x6S-8" value="" style="endArrow=none;html=1;rounded=0;dashed=1;dashPattern=1 2;entryX=1;entryY=0;entryDx=0;entryDy=0;exitX=0.5;exitY=1;exitDx=0;exitDy=0;" parent="1" source="Mo9uFNVVSariN-oG8x6S-4" target="Mo9uFNVVSariN-oG8x6S-6" edge="1">
          <mxGeometry relative="1" as="geometry">
            <mxPoint x="330" y="410" as="sourcePoint" />
            <mxPoint x="490" y="410" as="targetPoint" />
          </mxGeometry>
        </mxCell>
        <mxCell id="Mo9uFNVVSariN-oG8x6S-9" value="1" style="resizable=0;html=1;whiteSpace=wrap;align=left;verticalAlign=bottom;" parent="Mo9uFNVVSariN-oG8x6S-8" connectable="0" vertex="1">
          <mxGeometry x="-1" relative="1" as="geometry" />
        </mxCell>
        <mxCell id="Mo9uFNVVSariN-oG8x6S-10" value="1" style="resizable=0;html=1;whiteSpace=wrap;align=right;verticalAlign=bottom;" parent="Mo9uFNVVSariN-oG8x6S-8" connectable="0" vertex="1">
          <mxGeometry x="1" relative="1" as="geometry" />
        </mxCell>
        <mxCell id="Mo9uFNVVSariN-oG8x6S-15" value="" style="endArrow=none;html=1;rounded=0;dashed=1;dashPattern=1 2;entryX=0.5;entryY=0;entryDx=0;entryDy=0;exitX=0.75;exitY=1;exitDx=0;exitDy=0;" parent="1" source="Mo9uFNVVSariN-oG8x6S-3" target="Mo9uFNVVSariN-oG8x6S-5" edge="1">
          <mxGeometry relative="1" as="geometry">
            <mxPoint x="330" y="410" as="sourcePoint" />
            <mxPoint x="490" y="410" as="targetPoint" />
          </mxGeometry>
        </mxCell>
        <mxCell id="Mo9uFNVVSariN-oG8x6S-16" value="M" style="resizable=0;html=1;whiteSpace=wrap;align=left;verticalAlign=bottom;" parent="Mo9uFNVVSariN-oG8x6S-15" connectable="0" vertex="1">
          <mxGeometry x="-1" relative="1" as="geometry" />
        </mxCell>
        <mxCell id="Mo9uFNVVSariN-oG8x6S-17" value="N" style="resizable=0;html=1;whiteSpace=wrap;align=right;verticalAlign=bottom;" parent="Mo9uFNVVSariN-oG8x6S-15" connectable="0" vertex="1">
          <mxGeometry x="1" relative="1" as="geometry" />
        </mxCell>
        <mxCell id="Mo9uFNVVSariN-oG8x6S-18" value="" style="endArrow=none;html=1;rounded=0;dashed=1;dashPattern=1 2;exitX=0.5;exitY=0;exitDx=0;exitDy=0;entryX=0.445;entryY=1;entryDx=0;entryDy=0;entryPerimeter=0;" parent="1" source="Mo9uFNVVSariN-oG8x6S-2" target="Mo9uFNVVSariN-oG8x6S-5" edge="1">
          <mxGeometry relative="1" as="geometry">
            <mxPoint x="330" y="410" as="sourcePoint" />
            <mxPoint x="490" y="410" as="targetPoint" />
          </mxGeometry>
        </mxCell>
        <mxCell id="Mo9uFNVVSariN-oG8x6S-19" value="1" style="resizable=0;html=1;whiteSpace=wrap;align=left;verticalAlign=bottom;" parent="Mo9uFNVVSariN-oG8x6S-18" connectable="0" vertex="1">
          <mxGeometry x="-1" relative="1" as="geometry" />
        </mxCell>
        <mxCell id="Mo9uFNVVSariN-oG8x6S-20" value="N" style="resizable=0;html=1;whiteSpace=wrap;align=right;verticalAlign=bottom;" parent="Mo9uFNVVSariN-oG8x6S-18" connectable="0" vertex="1">
          <mxGeometry x="1" relative="1" as="geometry" />
        </mxCell>
        <mxCell id="Mo9uFNVVSariN-oG8x6S-21" value="" style="endArrow=none;html=1;rounded=0;dashed=1;dashPattern=1 2;entryX=0.5;entryY=1;entryDx=0;entryDy=0;exitX=0.75;exitY=0;exitDx=0;exitDy=0;" parent="1" source="Mo9uFNVVSariN-oG8x6S-6" target="Mo9uFNVVSariN-oG8x6S-3" edge="1">
          <mxGeometry relative="1" as="geometry">
            <mxPoint x="330" y="260" as="sourcePoint" />
            <mxPoint x="490" y="260" as="targetPoint" />
          </mxGeometry>
        </mxCell>
        <mxCell id="Mo9uFNVVSariN-oG8x6S-22" value="1" style="resizable=0;html=1;whiteSpace=wrap;align=left;verticalAlign=bottom;" parent="Mo9uFNVVSariN-oG8x6S-21" connectable="0" vertex="1">
          <mxGeometry x="-1" relative="1" as="geometry" />
        </mxCell>
        <mxCell id="Mo9uFNVVSariN-oG8x6S-23" value="N" style="resizable=0;html=1;whiteSpace=wrap;align=right;verticalAlign=bottom;" parent="Mo9uFNVVSariN-oG8x6S-21" connectable="0" vertex="1">
          <mxGeometry x="1" relative="1" as="geometry" />
        </mxCell>
        <mxCell id="Mo9uFNVVSariN-oG8x6S-24" value="" style="endArrow=none;html=1;rounded=0;dashed=1;dashPattern=1 2;entryX=0;entryY=0.5;entryDx=0;entryDy=0;exitX=1;exitY=0.5;exitDx=0;exitDy=0;" parent="1" source="Mo9uFNVVSariN-oG8x6S-4" target="Mo9uFNVVSariN-oG8x6S-5" edge="1">
          <mxGeometry relative="1" as="geometry">
            <mxPoint x="330" y="260" as="sourcePoint" />
            <mxPoint x="490" y="260" as="targetPoint" />
          </mxGeometry>
        </mxCell>
        <mxCell id="Mo9uFNVVSariN-oG8x6S-25" value="M" style="resizable=0;html=1;whiteSpace=wrap;align=left;verticalAlign=bottom;" parent="Mo9uFNVVSariN-oG8x6S-24" connectable="0" vertex="1">
          <mxGeometry x="-1" relative="1" as="geometry" />
        </mxCell>
        <mxCell id="Mo9uFNVVSariN-oG8x6S-26" value="N" style="resizable=0;html=1;whiteSpace=wrap;align=right;verticalAlign=bottom;" parent="Mo9uFNVVSariN-oG8x6S-24" connectable="0" vertex="1">
          <mxGeometry x="1" relative="1" as="geometry" />
        </mxCell>
        <mxCell id="V4fIjXjQKr_tycwMBCek-1" value="Medien" style="whiteSpace=wrap;html=1;align=center;" vertex="1" parent="1">
          <mxGeometry x="660" y="55" width="100" height="40" as="geometry" />
        </mxCell>
        <mxCell id="V4fIjXjQKr_tycwMBCek-2" value="" style="endArrow=none;html=1;rounded=0;dashed=1;dashPattern=1 2;entryX=0.5;entryY=1;entryDx=0;entryDy=0;exitX=0.75;exitY=0;exitDx=0;exitDy=0;" edge="1" parent="1" source="Mo9uFNVVSariN-oG8x6S-5" target="V4fIjXjQKr_tycwMBCek-1">
          <mxGeometry relative="1" as="geometry">
            <mxPoint x="330" y="410" as="sourcePoint" />
            <mxPoint x="490" y="410" as="targetPoint" />
          </mxGeometry>
        </mxCell>
        <mxCell id="V4fIjXjQKr_tycwMBCek-3" value="1" style="resizable=0;html=1;whiteSpace=wrap;align=left;verticalAlign=bottom;" connectable="0" vertex="1" parent="V4fIjXjQKr_tycwMBCek-2">
          <mxGeometry x="-1" relative="1" as="geometry" />
        </mxCell>
        <mxCell id="V4fIjXjQKr_tycwMBCek-4" value="N" style="resizable=0;html=1;whiteSpace=wrap;align=right;verticalAlign=bottom;" connectable="0" vertex="1" parent="V4fIjXjQKr_tycwMBCek-2">
          <mxGeometry x="1" relative="1" as="geometry" />
        </mxCell>
        <mxCell id="V4fIjXjQKr_tycwMBCek-5" value="Kommentare/Bewertungen" style="whiteSpace=wrap;html=1;align=center;" vertex="1" parent="1">
          <mxGeometry x="410" y="420" width="160" height="40" as="geometry" />
        </mxCell>
        <mxCell id="V4fIjXjQKr_tycwMBCek-6" value="" style="endArrow=none;html=1;rounded=0;dashed=1;dashPattern=1 2;entryX=0;entryY=1;entryDx=0;entryDy=0;exitX=0.75;exitY=0;exitDx=0;exitDy=0;" edge="1" parent="1" source="V4fIjXjQKr_tycwMBCek-5" target="Mo9uFNVVSariN-oG8x6S-5">
          <mxGeometry relative="1" as="geometry">
            <mxPoint x="330" y="410" as="sourcePoint" />
            <mxPoint x="490" y="410" as="targetPoint" />
          </mxGeometry>
        </mxCell>
        <mxCell id="V4fIjXjQKr_tycwMBCek-7" value="N" style="resizable=0;html=1;whiteSpace=wrap;align=left;verticalAlign=bottom;" connectable="0" vertex="1" parent="V4fIjXjQKr_tycwMBCek-6">
          <mxGeometry x="-1" relative="1" as="geometry" />
        </mxCell>
        <mxCell id="V4fIjXjQKr_tycwMBCek-8" value="1" style="resizable=0;html=1;whiteSpace=wrap;align=right;verticalAlign=bottom;" connectable="0" vertex="1" parent="V4fIjXjQKr_tycwMBCek-6">
          <mxGeometry x="1" relative="1" as="geometry" />
        </mxCell>
        <mxCell id="V4fIjXjQKr_tycwMBCek-9" value="" style="endArrow=none;html=1;rounded=0;dashed=1;dashPattern=1 2;entryX=0;entryY=0.5;entryDx=0;entryDy=0;exitX=1;exitY=0.75;exitDx=0;exitDy=0;" edge="1" parent="1" source="Mo9uFNVVSariN-oG8x6S-6" target="V4fIjXjQKr_tycwMBCek-5">
          <mxGeometry relative="1" as="geometry">
            <mxPoint x="330" y="410" as="sourcePoint" />
            <mxPoint x="490" y="410" as="targetPoint" />
          </mxGeometry>
        </mxCell>
        <mxCell id="V4fIjXjQKr_tycwMBCek-10" value="1" style="resizable=0;html=1;whiteSpace=wrap;align=left;verticalAlign=bottom;" connectable="0" vertex="1" parent="V4fIjXjQKr_tycwMBCek-9">
          <mxGeometry x="-1" relative="1" as="geometry" />
        </mxCell>
        <mxCell id="V4fIjXjQKr_tycwMBCek-11" value="N" style="resizable=0;html=1;whiteSpace=wrap;align=right;verticalAlign=bottom;" connectable="0" vertex="1" parent="V4fIjXjQKr_tycwMBCek-9">
          <mxGeometry x="1" relative="1" as="geometry" />
        </mxCell>
      </root>
    </mxGraphModel>
  </diagram>
</mxfile>
